<?xml version="1.0" standalone="no"?>
<!DOCTYPE svg PUBLIC "-//W3C//DTD SVG 20010904//EN"
 "http://www.w3.org/TR/2001/REC-SVG-20010904/DTD/svg10.dtd">
<svg version="1.0" xmlns="http://www.w3.org/2000/svg"
 width="402.000000pt" height="125.000000pt" viewBox="0 0 402.000000 125.000000"
 preserveAspectRatio="xMidYMid meet">

<g transform="translate(0.000000,125.000000) scale(0.100000,-0.100000)"
fill="#000000" stroke="none">
<path d="M679 1093 c-13 -37 -25 -71 -27 -75 -9 -21 16 -5 26 17 8 17 20 25
37 25 15 0 31 -9 41 -25 32 -48 32 -24 1 50 -17 41 -36 75 -42 75 -6 0 -22
-30 -36 -67z m55 0 c6 -20 4 -23 -19 -23 -22 0 -26 3 -20 18 4 9 10 25 13 36
5 20 14 11 26 -31z"/>
<path d="M811 1086 c0 -44 2 -76 5 -73 4 3 14 2 24 -3 28 -15 60 15 60 55 0
38 -27 61 -60 50 -15 -5 -19 0 -23 22 -2 15 -5 -8 -6 -51z m72 -5 c7 -27 -11
-61 -32 -61 -31 0 -42 48 -16 74 18 18 41 12 48 -13z"/>
<path d="M1318 1133 c-2 -10 -2 -42 0 -70 3 -47 7 -53 25 -52 12 0 16 3 10 6
-16 6 -17 75 -1 91 9 9 9 12 0 12 -7 0 -12 7 -12 15 0 21 -17 19 -22 -2z"/>
<path d="M940 1110 c-8 -5 -11 -12 -7 -16 3 -4 13 -2 20 5 17 13 50 4 44 -13
-2 -6 -15 -12 -30 -14 -31 -4 -51 -26 -43 -47 4 -11 18 -15 51 -13 l45 1 0 42
c0 22 -5 46 -12 53 -14 14 -47 15 -68 2z m58 -67 c-4 -23 -58 -31 -58 -9 0 15
14 24 43 25 12 1 17 -5 15 -16z"/>
<path d="M1050 1063 c0 -29 5 -53 10 -53 6 0 10 20 10 45 0 33 4 45 14 45 8 0
17 4 21 10 3 5 -7 8 -25 7 -29 -2 -30 -3 -30 -54z"/>
<path d="M1120 1063 c0 -29 5 -53 10 -53 6 0 10 18 10 41 0 32 4 42 20 46 30
8 24 22 -10 21 -29 -1 -30 -2 -30 -55z"/>
<path d="M1206 1104 c-25 -24 -20 -71 9 -90 23 -15 27 -15 50 0 44 29 26 106
-25 106 -10 0 -26 -7 -34 -16z m53 -8 c7 -8 11 -27 9 -43 -2 -22 -8 -28 -28
-28 -20 0 -26 6 -28 28 -3 27 12 57 28 57 4 0 13 -6 19 -14z"/>
<path d="M1387 1102 c-34 -37 -11 -94 37 -94 28 0 55 17 44 28 -3 3 -15 0 -26
-7 -23 -14 -52 -6 -52 16 0 11 11 15 40 15 44 0 52 16 24 44 -21 21 -47 20
-67 -2z m63 -18 c0 -9 -11 -14 -30 -14 -33 0 -39 14 -13 28 21 12 43 5 43 -14z"/>
<path d="M1506 1104 c-20 -20 -14 -31 30 -49 20 -8 33 -19 29 -25 -8 -13 -42
-13 -50 0 -10 16 -25 12 -19 -5 14 -35 84 -23 84 15 0 12 -11 22 -35 30 -19 6
-35 15 -35 20 0 13 26 19 41 9 22 -14 33 -11 19 6 -16 19 -44 19 -64 -1z"/>
<path d="M1666 1020 c-78 -31 -136 -97 -171 -195 -6 -18 -9 -16 -26 17 -31 60
-85 76 -130 39 -23 -18 -24 -25 -24 -138 -1 -94 -4 -125 -19 -151 -21 -40 -32
-37 -15 4 7 16 13 72 13 124 1 76 -3 103 -19 135 -17 35 -25 40 -58 43 -26 2
-45 -2 -58 -14 -18 -16 -20 -16 -37 -1 -19 17 -57 22 -87 11 -20 -8 -45 -55
-60 -114 l-11 -44 -13 46 c-28 99 -121 166 -217 155 -84 -9 -130 -65 -106
-130 7 -19 12 -86 12 -155 0 -110 2 -123 21 -141 29 -27 76 -33 135 -18 67 18
119 59 146 117 l22 48 17 -52 c10 -28 31 -63 48 -78 34 -30 102 -52 131 -43
21 7 28 -9 10 -20 -19 -12 -10 -47 19 -76 33 -33 79 -38 134 -15 43 18 110 94
127 146 l13 40 29 -35 c38 -45 91 -49 128 -10 23 24 23 28 12 83 -7 32 -12 69
-11 83 0 13 6 -2 13 -34 15 -67 50 -110 115 -139 104 -47 221 35 221 156 l0
46 34 -37 34 -38 -29 -12 c-35 -14 -69 -67 -69 -106 0 -97 112 -178 204 -147
78 26 126 88 126 165 0 53 -9 73 -57 133 -33 40 -33 42 -12 42 12 0 31 7 41
17 17 15 18 14 18 -38 1 -97 55 -175 140 -200 33 -10 47 -9 85 5 66 26 105 93
105 186 l0 35 34 -40 34 -40 -28 -16 c-43 -27 -60 -58 -60 -113 0 -44 4 -53
43 -91 29 -29 55 -46 81 -50 76 -15 160 31 192 105 14 32 20 37 35 29 35 -19
76 -10 102 21 18 20 35 30 54 30 26 0 32 -7 57 -65 38 -89 81 -125 146 -125
85 0 130 38 130 109 0 51 -56 85 -100 61 -12 -7 -26 -8 -30 -3 -4 4 -31 73
-60 153 -61 170 -74 196 -99 210 -31 16 -79 12 -100 -9 -10 -10 -42 -80 -72
-155 -43 -110 -56 -134 -64 -120 -5 10 -25 34 -42 54 -39 45 -40 50 -9 50 31
0 56 34 56 76 0 61 -106 124 -188 110 -38 -6 -66 -27 -92 -69 l-18 -28 -11 32
c-6 18 -19 41 -28 51 -19 21 -70 24 -99 4 -17 -12 -22 -12 -39 0 -46 34 -99
11 -127 -54 -18 -40 -22 -44 -29 -26 -10 29 -62 70 -105 84 -48 16 -110 7
-140 -21 -37 -34 -65 -120 -57 -174 12 -92 -43 -171 -127 -182 -55 -8 -85 2
-129 43 -70 62 -76 170 -15 251 56 75 180 62 239 -24 14 -21 25 -32 25 -24 0
47 -90 111 -157 111 l-38 1 38 13 c52 19 67 34 67 66 0 42 -9 59 -41 75 -38
20 -94 18 -153 -5z m137 -28 c11 -11 13 -22 7 -32 -10 -16 -12 -15 -28 23 -13
31 -3 36 21 9z m-76 -2 c6 0 11 -8 11 -17 0 -10 3 -26 7 -35 11 -26 -41 -37
-59 -12 -12 16 -18 16 -40 6 -27 -12 -35 -37 -14 -44 7 -3 9 -12 5 -22 -5 -13
-14 -17 -28 -13 -15 4 -28 -1 -41 -16 l-18 -22 6 29 c5 21 4 27 -5 22 -16 -10
-14 6 5 32 8 12 21 21 28 20 16 -4 69 39 62 51 -9 14 25 32 49 26 11 -3 25 -5
32 -5z m-987 -90 c0 -14 37 -13 42 2 7 20 37 0 51 -34 11 -27 11 -35 0 -46 -7
-7 -13 -18 -13 -23 0 -24 -20 -5 -26 26 -4 22 -13 37 -26 41 -29 9 -33 -1 -19
-47 10 -34 10 -43 -1 -50 -20 -13 -52 -11 -74 6 -19 14 -18 14 3 15 20 0 21 3
13 26 -11 29 -13 78 -3 87 10 11 53 8 53 -3z m375 -30 c17 -19 17 -24 2 -95
-21 -92 -21 -106 -3 -130 12 -17 16 -18 31 -5 16 13 17 27 12 116 -5 91 -4
104 13 119 29 26 71 16 94 -25 17 -28 21 -52 21 -125 0 -154 -45 -227 -139
-227 -102 0 -166 76 -167 197 -1 145 75 243 136 175z m1029 9 c87 -22 131 -94
86 -139 -23 -23 -33 -24 -62 -9 -11 6 -21 9 -23 7 -2 -2 20 -34 50 -72 30 -37
57 -83 61 -100 17 -94 -59 -186 -155 -186 -108 0 -175 109 -121 198 40 65 134
27 102 -42 -13 -29 6 -42 33 -22 30 22 23 58 -19 101 -22 22 -36 33 -32 25 4
-8 -13 6 -38 32 -38 39 -46 53 -46 85 0 49 32 100 73 118 39 17 39 17 91 4z
m250 1 c21 -8 26 -16 26 -45 0 -23 -5 -38 -16 -42 -9 -3 -11 -8 -6 -12 7 -4 7
-22 1 -53 -12 -54 0 -88 31 -88 29 0 40 70 25 163 -6 39 -4 51 10 67 23 25 46
25 76 1 18 -15 23 -29 24 -64 0 -25 3 -43 8 -40 4 2 5 -31 2 -74 -6 -89 -38
-169 -67 -167 -10 1 -16 -2 -13 -6 14 -22 -70 -26 -119 -6 -40 17 -86 74 -90
113 -2 15 -7 36 -11 46 -9 21 7 108 29 161 12 30 28 43 63 55 1 1 13 -3 27 -9z
m412 -16 c40 -19 74 -58 74 -85 0 -28 -38 -62 -61 -55 -10 3 -29 9 -41 13 -17
5 -8 -10 35 -60 80 -95 91 -158 42 -234 -61 -92 -209 -81 -258 20 -33 67 5
147 69 147 43 0 64 -35 46 -75 -13 -28 -6 -36 24 -25 14 6 23 20 26 39 2 17 3
29 1 27 -4 -4 -41 28 -113 97 -34 32 -40 44 -40 78 0 47 21 91 52 113 29 21
101 20 144 0z m312 -23 c12 -11 22 -28 22 -38 0 -11 7 -28 15 -39 8 -10 15
-34 15 -51 0 -18 4 -33 8 -33 5 0 14 -11 20 -25 7 -14 8 -25 2 -25 -11 0 -1
-31 15 -45 17 -14 27 -45 15 -45 -6 0 -10 -7 -10 -15 0 -22 -21 -18 -27 5 -4
15 -11 18 -28 14 -17 -4 -24 0 -28 16 -4 17 -1 24 14 27 29 8 20 38 -11 38
-20 0 -25 -5 -25 -25 0 -32 -29 -34 -33 -2 -4 27 -32 30 -32 2 0 -11 -7 -20
-15 -20 -8 0 -15 9 -15 20 0 18 -8 23 -61 32 -24 4 -6 48 20 48 10 0 21 7 25
15 4 10 -1 15 -15 15 -19 0 -19 2 -4 30 16 32 24 34 94 30 33 -1 42 1 39 12
-3 8 -24 14 -56 16 -54 3 -60 8 -39 34 25 32 63 35 95 9z m-1722 -6 c4 -8 15
-15 25 -15 22 0 39 -32 21 -38 -7 -2 -12 -10 -12 -18 0 -8 -4 -14 -10 -14 -5
0 -10 5 -10 11 0 6 -11 8 -29 4 -24 -5 -29 -2 -34 16 -7 27 -1 39 20 39 9 0
13 6 9 15 -3 8 -1 15 5 15 5 0 12 -7 15 -15z m281 -17 c-14 -18 -29 -46 -35
-63 -6 -16 -11 -25 -11 -18 -2 21 20 67 41 91 31 32 33 27 5 -10z m-769 -5
c20 -38 23 -73 7 -73 -8 0 -15 -9 -15 -20 0 -11 -4 -20 -10 -20 -5 0 -10 7
-10 15 0 8 -9 15 -20 15 -13 0 -20 7 -20 20 0 11 5 20 10 20 6 0 10 12 10 26
0 14 4 23 10 19 6 -3 10 -1 10 4 0 17 18 13 28 -6z m676 -19 c17 -7 21 -29 7
-38 -5 -3 -23 -3 -40 0 -21 5 -31 12 -31 25 0 20 31 26 64 13z m-438 -118 c-3
-14 -11 -26 -16 -26 -12 0 -13 53 -3 101 l7 34 9 -42 c5 -23 7 -53 3 -67z
m1294 44 c0 -56 -11 -78 -23 -47 -5 14 11 107 19 107 2 0 4 -27 4 -60z m-1690
16 c0 -6 -18 -11 -45 -11 -33 0 -45 4 -45 15 0 12 10 14 45 12 25 -2 45 -9 45
-16z m41 -49 c-8 -8 -11 -1 -11 24 0 46 14 60 18 19 2 -18 -1 -37 -7 -43z
m689 36 c-1 -14 -87 -63 -109 -63 -28 0 -28 34 1 54 23 16 108 23 108 9z
m-749 -33 c23 -13 27 -45 4 -36 -10 4 -15 -1 -15 -14 0 -14 5 -18 16 -13 14 5
16 2 10 -23 -4 -16 -10 -44 -13 -61 -6 -37 -31 -44 -57 -17 -19 19 -19 24 -1
48 20 27 20 77 0 70 -11 -5 -15 1 -15 19 0 35 33 47 71 27z m848 1 c8 -5 11
-16 6 -30 -5 -16 -15 -21 -38 -21 -18 0 -43 -7 -56 -16 -19 -14 -25 -14 -32
-3 -6 10 -3 17 8 24 9 6 26 20 38 32 21 23 50 29 74 14z m-661 -23 c13 -11 8
-43 -11 -66 -6 -8 -14 -9 -20 -3 -6 6 -16 6 -28 -2 -10 -6 -22 -7 -26 -3 -4 5
-2 11 5 13 14 5 16 33 2 33 -14 0 -12 24 2 38 14 14 54 8 76 -10z m-93 -75
l26 -38 -22 -17 c-41 -34 -59 -19 -59 53 0 51 21 52 55 2z m573 3 c22 -7 28
-29 16 -60 -5 -14 -8 -14 -27 -1 -28 20 -34 19 -47 -6 -9 -16 -8 -25 6 -40 16
-18 16 -20 -1 -40 l-19 -20 -16 22 c-12 15 -23 19 -38 15 -18 -6 -20 -11 -12
-27 13 -24 5 -39 -20 -39 -24 0 -43 34 -35 60 4 14 15 20 35 20 20 0 28 4 24
13 -3 8 9 19 28 28 22 9 34 22 36 39 4 29 33 65 41 52 3 -5 16 -12 29 -16z
m168 -6 c26 0 33 -27 12 -48 -16 -16 -53 -15 -66 1 -15 18 -3 60 15 53 8 -3
26 -6 39 -6z m1435 -10 l24 -20 -30 -25 c-16 -14 -34 -24 -39 -22 -18 6 -17
25 1 30 10 3 3 5 -14 6 -36 1 -38 3 -23 32 14 25 51 24 81 -1z m361 -87 c19
-17 24 -58 8 -68 -5 -3 -10 0 -10 8 0 11 -46 37 -64 37 -7 0 2 -50 12 -67 12
-21 11 -23 -12 -23 -44 0 -56 9 -50 40 4 15 1 31 -5 34 -6 4 -8 13 -5 19 4 7
-4 1 -19 -11 l-25 -24 -12 21 c-18 35 -3 44 61 38 33 -3 62 -1 65 4 8 14 36
11 56 -8z"/>
<path d="M2178 623 c7 -3 16 -2 19 1 4 3 -2 6 -13 5 -11 0 -14 -3 -6 -6z"/>
<path d="M3067 726 c-4 -9 -13 -16 -21 -16 -22 0 -24 -32 -4 -52 20 -20 38
-23 38 -7 0 5 4 8 9 5 5 -3 11 1 15 9 3 8 14 15 25 15 14 0 18 5 14 20 -3 12
-14 20 -27 20 -12 0 -27 5 -33 11 -7 7 -12 6 -16 -5z"/>
<path d="M1830 730 c-8 -6 -32 -10 -52 -10 l-38 0 0 -43 c0 -51 24 -79 66 -79
36 0 54 26 54 76 0 50 -10 68 -30 56z m8 -62 c-3 -36 -7 -44 -26 -46 -31 -5
-52 15 -52 49 0 24 4 28 33 32 17 2 36 5 40 5 5 1 7 -17 5 -40z"/>
<path d="M770 270 c0 -5 11 -10 25 -10 24 0 25 -2 25 -70 0 -40 4 -70 10 -70
6 0 10 30 10 70 0 68 1 70 25 70 14 0 25 5 25 10 0 6 -27 10 -60 10 -33 0 -60
-4 -60 -10z"/>
<path d="M1850 256 c0 -21 -5 -24 -27 -23 -20 2 -31 -5 -42 -25 -14 -25 -14
-31 -1 -55 12 -22 24 -28 53 -30 l37 -1 0 79 c0 46 -4 79 -10 79 -5 0 -10 -11
-10 -24z m-5 -76 c0 -31 -3 -35 -25 -35 -19 0 -26 6 -28 23 -5 36 5 54 30 50
19 -2 23 -9 23 -38z"/>
<path d="M2020 200 c0 -47 4 -80 10 -80 6 0 10 33 10 80 0 47 -4 80 -10 80 -6
0 -10 -33 -10 -80z"/>
<path d="M2130 203 l0 -78 35 -2 c27 -2 38 2 50 21 28 43 -6 106 -49 90 -12
-5 -16 0 -16 20 0 14 -4 26 -10 26 -6 0 -10 -32 -10 -77z m74 1 c10 -25 7 -42
-10 -59 -12 -12 -19 -13 -30 -4 -14 12 -19 60 -7 72 12 13 41 7 47 -9z"/>
<path d="M3100 270 c0 -5 5 -10 10 -10 6 0 10 5 10 10 0 6 -4 10 -10 10 -5 0
-10 -4 -10 -10z"/>
<path d="M1212 224 c-40 -28 -21 -104 27 -104 21 0 58 26 49 35 -3 3 -15 1
-26 -6 -21 -13 -52 -7 -52 11 0 5 18 10 40 10 33 0 40 3 40 19 0 17 -33 51
-50 51 -3 0 -16 -7 -28 -16z m56 -21 c2 -9 -7 -13 -27 -13 -30 0 -39 9 -24 24
11 10 46 3 51 -11z"/>
<path d="M1330 220 c-25 -25 -26 -62 -2 -83 25 -22 45 -21 67 3 10 11 13 20 8
20 -6 0 -16 -7 -23 -15 -19 -23 -50 -1 -50 36 0 34 23 48 51 30 11 -6 19 -7
19 -1 0 9 -31 30 -44 30 -3 0 -15 -9 -26 -20z"/>
<path d="M1493 233 c-20 -4 -23 -11 -23 -53 0 -64 18 -74 22 -13 3 41 6 48 25
51 23 3 28 -6 36 -73 2 -16 5 -5 6 26 1 44 -3 58 -15 63 -9 3 -19 5 -22 5 -4
-1 -17 -4 -29 -6z"/>
<path d="M1612 224 c-39 -27 -21 -104 24 -104 54 0 76 73 32 104 -12 9 -25 16
-28 16 -3 0 -16 -7 -28 -16z m53 -44 c0 -31 -3 -35 -25 -35 -19 0 -26 6 -28
23 -5 36 5 54 30 50 19 -2 23 -9 23 -38z"/>
<path d="M1911 221 c-26 -26 -27 -55 -1 -81 23 -23 50 -26 68 -8 21 21 13 29
-12 13 -22 -15 -25 -14 -42 2 -17 17 -16 18 27 23 37 4 43 8 41 25 -7 41 -52
55 -81 26z m63 -16 c4 -12 -3 -15 -29 -15 -26 0 -33 3 -29 15 4 8 16 15 29 15
13 0 25 -7 29 -15z"/>
<path d="M2392 224 c-29 -20 -31 -79 -3 -94 28 -14 47 -13 66 6 23 23 9 31
-15 9 -16 -14 -22 -15 -35 -5 -25 21 -17 30 25 30 33 0 40 3 40 19 0 17 -33
51 -50 51 -3 0 -16 -7 -28 -16z m56 -21 c2 -9 -7 -13 -27 -13 -30 0 -39 9 -24
24 11 10 46 3 51 -11z"/>
<path d="M2531 231 c-8 -5 -19 -7 -25 -5 -8 3 -10 -14 -6 -53 2 -35 5 -46 7
-28 7 65 13 76 36 73 19 -3 22 -10 25 -51 2 -26 7 -45 13 -42 15 10 10 82 -7
99 -18 18 -24 19 -43 7z"/>
<path d="M2703 233 c-21 -4 -23 -10 -23 -79 0 -43 4 -74 10 -74 6 0 10 11 10
25 0 17 4 23 14 19 8 -3 24 -1 35 6 29 15 30 85 2 100 -11 5 -21 9 -23 9 -2
-1 -13 -4 -25 -6z m45 -25 c16 -16 15 -44 -3 -62 -31 -30 -67 13 -45 54 12 23
30 26 48 8z"/>
<path d="M2818 233 c-14 -4 -18 -15 -18 -59 0 -30 5 -54 10 -54 6 0 10 21 10
46 0 37 4 47 20 51 11 3 17 9 14 14 -5 9 -8 10 -36 2z"/>
<path d="M2900 233 c-22 -9 -30 -24 -30 -60 0 -48 51 -70 85 -37 22 23 12 29
-18 10 -22 -15 -25 -15 -42 4 -18 20 -18 20 28 20 53 0 61 16 27 50 -21 21
-25 22 -50 13z m48 -30 c2 -9 -7 -13 -27 -13 -30 0 -39 9 -24 24 11 10 46 3
51 -11z"/>
<path d="M3006 224 c-9 -8 -16 -28 -16 -44 0 -48 48 -78 78 -48 21 21 13 29
-12 13 -20 -14 -25 -14 -35 -1 -18 22 -10 70 13 74 10 2 22 -2 27 -9 4 -7 12
-10 16 -5 9 9 -24 36 -43 36 -7 0 -20 -7 -28 -16z"/>
<path d="M3167 228 c-28 -22 -32 -63 -8 -87 26 -26 53 -27 74 -3 23 25 21 58
-3 82 -23 23 -40 25 -63 8z m61 -45 c4 -40 -27 -62 -52 -37 -31 30 -11 78 29
72 14 -2 21 -12 23 -35z"/>
<path d="M900 186 c0 -51 14 -66 58 -63 32 2 32 2 31 57 -1 58 -4 58 -14 -2
-5 -32 -10 -38 -30 -38 -23 0 -25 4 -25 45 0 25 -4 45 -10 45 -5 0 -10 -20
-10 -44z"/>
<path d="M1086 208 c12 -40 33 -88 38 -88 6 0 28 49 40 88 4 12 3 22 -2 22 -5
0 -15 -19 -22 -42 l-13 -43 -13 30 c-7 17 -13 36 -14 43 0 6 -5 12 -11 12 -6
0 -8 -9 -3 -22z"/>
<path d="M1433 175 c0 -33 2 -45 4 -27 2 18 2 45 0 60 -2 15 -4 0 -4 -33z"/>
<path d="M2250 186 c0 -51 14 -66 58 -63 32 2 32 3 32 55 0 28 -4 52 -10 52
-5 0 -10 -20 -10 -44 0 -43 -11 -58 -37 -49 -8 3 -13 22 -13 49 0 24 -4 44
-10 44 -5 0 -10 -20 -10 -44z"/>
<path d="M3100 175 c0 -30 5 -55 10 -55 6 0 10 25 10 55 0 30 -4 55 -10 55 -5
0 -10 -25 -10 -55z"/>
</g>
</svg>
